<svg width="16" height="16" viewBox="0 0 16 16" fill="none" xmlns="http://www.w3.org/2000/svg">
<path d="M1.5444 10.6667V1.52381H0V0H2.31661C2.52141 0 2.71782 0.0802718 2.86263 0.223157C3.00745 0.366042 3.08881 0.559835 3.08881 0.761905V9.90476H12.6935L14.2379 3.80952H4.63321V2.28571H15.2278C15.3452 2.28572 15.461 2.31212 15.5665 2.36292C15.672 2.41372 15.7644 2.48758 15.8366 2.57889C15.9088 2.67019 15.959 2.77653 15.9833 2.88984C16.0076 3.00314 16.0054 3.12042 15.9769 3.23276L14.0463 10.8518C14.0045 11.0166 13.9081 11.1628 13.7724 11.2673C13.6367 11.3718 13.4695 11.4286 13.2973 11.4286H2.31661C2.1118 11.4286 1.91539 11.3483 1.77058 11.2054C1.62576 11.0625 1.5444 10.8687 1.5444 10.6667ZM3.08881 16C2.67921 16 2.28638 15.8395 1.99675 15.5537C1.70712 15.2679 1.5444 14.8803 1.5444 14.4762C1.5444 14.0721 1.70712 13.6845 1.99675 13.3987C2.28638 13.1129 2.67921 12.9524 3.08881 12.9524C3.49841 12.9524 3.89123 13.1129 4.18087 13.3987C4.4705 13.6845 4.63321 14.0721 4.63321 14.4762C4.63321 14.8803 4.4705 15.2679 4.18087 15.5537C3.89123 15.8395 3.49841 16 3.08881 16ZM12.3552 16C11.9456 16 11.5528 15.8395 11.2632 15.5537C10.9735 15.2679 10.8108 14.8803 10.8108 14.4762C10.8108 14.0721 10.9735 13.6845 11.2632 13.3987C11.5528 13.1129 11.9456 12.9524 12.3552 12.9524C12.7648 12.9524 13.1577 13.1129 13.4473 13.3987C13.7369 13.6845 13.8996 14.0721 13.8996 14.4762C13.8996 14.8803 13.7369 15.2679 13.4473 15.5537C13.1577 15.8395 12.7648 16 12.3552 16Z" fill="#F5F5F5"/>
</svg>
