<svg width="100" height="28" viewBox="0 0 100 28" fill="none" xmlns="http://www.w3.org/2000/svg">
<path d="M11.1892 10.7872C11.1137 10.9839 11.0382 11.2113 10.9627 11.4695C10.8873 11.7277 10.8055 12.0043 10.7174 12.2993C10.6545 12.5329 10.5728 12.8709 10.4721 13.3135C10.3715 13.7437 10.2897 14.1924 10.2269 14.6596C9.58532 14.635 8.86201 14.6227 8.05695 14.6227C7.26446 14.6104 6.55374 14.6043 5.92478 14.6043C5.62288 14.6043 5.23293 14.6043 4.75492 14.6043C4.28949 14.6043 3.78004 14.6104 3.22655 14.6227C2.68565 14.6227 2.13217 14.6288 1.5661 14.6411C1.01262 14.6411 0.490587 14.6473 0 14.6596L0.0754749 14.2908C0.503166 14.2662 0.836514 14.217 1.07552 14.1433C1.31452 14.0695 1.50321 13.922 1.64158 13.7007C1.77995 13.4794 1.90574 13.1475 2.01895 12.705L4.5285 3.55886C4.65429 3.10402 4.7046 2.7721 4.67945 2.56312C4.66687 2.34184 4.55994 2.19433 4.35868 2.12057C4.16999 2.03452 3.8618 1.98534 3.43411 1.97305L3.52845 1.60426C3.83035 1.61655 4.23918 1.62884 4.75492 1.64113C5.27067 1.65343 5.81786 1.65957 6.3965 1.65957C6.91225 1.65957 7.40912 1.65343 7.88713 1.64113C8.37772 1.62884 8.79912 1.61655 9.15134 1.60426L9.05699 1.97305C8.6293 1.98534 8.29595 2.03452 8.05695 2.12057C7.81795 2.19433 7.62926 2.34184 7.49089 2.56312C7.3651 2.7721 7.2393 3.10402 7.11351 3.55886L4.60397 12.705C4.47818 13.1475 4.42157 13.4794 4.43415 13.7007C4.45931 13.922 4.57252 14.0695 4.77379 14.1433C4.97506 14.2047 5.28325 14.2355 5.69836 14.2355H6.66066C7.31478 14.2355 7.88084 14.1248 8.35885 13.9035C8.84944 13.6823 9.28971 13.3196 9.67966 12.8156C10.0696 12.3116 10.4281 11.6355 10.7552 10.7872H11.1892Z" fill="#F5F5F5"/>
<path d="M14.2017 10.6028C14.7929 10.3816 15.3338 10.1541 15.8244 9.92057C16.3275 9.6747 16.7489 9.41655 17.0886 9.1461C17.554 8.74043 17.9314 8.26714 18.2207 7.72624C18.51 7.17305 18.6547 6.57069 18.6547 5.91915C18.6547 5.63641 18.6295 5.45201 18.5792 5.36596C18.5289 5.2799 18.4534 5.23688 18.3528 5.23688C18.0635 5.23688 17.749 5.3721 17.4094 5.64255C17.0697 5.913 16.7364 6.28794 16.4093 6.76738C16.0823 7.23452 15.7804 7.76312 15.5036 8.35319C15.2395 8.94326 15.0256 9.56407 14.8621 10.2156C14.6985 10.8671 14.6168 11.5125 14.6168 12.1518C14.6168 12.8033 14.7426 13.2643 14.9942 13.5348C15.2583 13.7929 15.6042 13.922 16.0319 13.922C16.3967 13.922 16.8307 13.8052 17.3339 13.5716C17.837 13.3381 18.3339 12.9139 18.8245 12.2993L19.1264 12.4468C18.8748 12.8525 18.5415 13.2459 18.1264 13.627C17.7113 14.008 17.2332 14.3215 16.6923 14.5674C16.164 14.8009 15.5791 14.9177 14.9375 14.9177C14.4092 14.9177 13.9312 14.8194 13.5035 14.6227C13.0758 14.426 12.7425 14.1371 12.5035 13.756C12.2645 13.3626 12.145 12.8832 12.145 12.3177C12.145 11.7154 12.2519 11.0761 12.4657 10.4C12.6796 9.71158 12.9815 9.04161 13.3714 8.39007C13.774 7.73853 14.2457 7.14846 14.7866 6.61986C15.3401 6.09125 15.9502 5.67329 16.6169 5.36596C17.2836 5.04634 18.0006 4.88652 18.7679 4.88652C19.2711 4.88652 19.6925 5.00331 20.0321 5.23688C20.3717 5.45816 20.5416 5.80236 20.5416 6.2695C20.5416 6.74894 20.4032 7.19764 20.1265 7.6156C19.8497 8.03357 19.4723 8.41466 18.9943 8.75886C18.5289 9.10307 18.0132 9.4104 17.4471 9.68085C16.8936 9.9513 16.3338 10.1849 15.7678 10.3816C15.2017 10.5782 14.6734 10.7381 14.1828 10.861L14.2017 10.6028Z" fill="#F5F5F5"/>
<path d="M24.8069 10.4922L25.5428 10.4553C25.0522 10.6766 24.6245 10.8794 24.2597 11.0638C23.8949 11.2359 23.6056 11.4019 23.3918 11.5617C23.1779 11.7092 23.071 11.8567 23.071 12.0043C23.071 12.1149 23.1465 12.2194 23.2974 12.3177C23.4484 12.4038 23.6874 12.4898 24.0144 12.5759L25.5239 13.0369C25.9013 13.1475 26.2472 13.2766 26.5617 13.4241C26.8888 13.5716 27.1529 13.7622 27.3542 13.9957C27.5555 14.2293 27.6561 14.5305 27.6561 14.8993C27.6561 15.305 27.5177 15.7045 27.241 16.0979C26.9768 16.4913 26.5932 16.8416 26.09 17.1489C25.5994 17.4686 25.0082 17.7206 24.3163 17.905C23.6245 18.1017 22.8572 18.2 22.0144 18.2C21.3728 18.2 20.8068 18.1385 20.3162 18.0156C19.813 17.905 19.4293 17.7452 19.1652 17.5362C18.8884 17.3272 18.7501 17.0813 18.7501 16.7986C18.7501 16.5773 18.8381 16.3683 19.0142 16.1716C19.1903 15.9749 19.4293 15.7967 19.7312 15.6369C20.0331 15.4771 20.3728 15.3357 20.7502 15.2128C21.1275 15.0898 21.5238 14.9976 21.9389 14.9362L22.0144 15.2128C21.5741 15.434 21.2659 15.6738 21.0898 15.9319C20.9263 16.2024 20.8445 16.4667 20.8445 16.7248C20.8445 17.1305 20.9892 17.4255 21.2785 17.6099C21.5804 17.7943 21.964 17.8865 22.4295 17.8865C22.8068 17.8865 23.1905 17.8312 23.5805 17.7206C23.983 17.6099 24.3541 17.4563 24.6937 17.2596C25.0459 17.0752 25.3227 16.86 25.5239 16.6142C25.7378 16.3683 25.8447 16.104 25.8447 15.8213C25.8447 15.6 25.7692 15.4463 25.6183 15.3603C25.4673 15.2865 25.2472 15.2189 24.9579 15.1574L22.1842 14.4014C21.8823 14.3154 21.6244 14.1801 21.4106 13.9957C21.1967 13.7991 21.0898 13.5409 21.0898 13.2213C21.0898 12.9262 21.2156 12.6435 21.4672 12.373C21.7313 12.0903 22.1339 11.8014 22.6748 11.5064C23.2282 11.1991 23.939 10.861 24.8069 10.4922ZM25.6749 5.21844C25.373 5.21844 25.1151 5.31678 24.9013 5.51347C24.6874 5.71017 24.4987 5.96832 24.3352 6.28794C24.1843 6.59527 24.0585 6.93333 23.9578 7.30213C23.8698 7.65863 23.8006 8.01513 23.7503 8.37163C23.7125 8.71584 23.6937 9.02317 23.6937 9.29362C23.6937 9.687 23.7566 9.96359 23.8824 10.1234C24.0207 10.2832 24.2094 10.3631 24.4484 10.3631C24.8006 10.3631 25.0962 10.234 25.3353 9.97589C25.5868 9.71773 25.7881 9.38582 25.9391 8.98014C26.09 8.57447 26.1969 8.15035 26.2598 7.7078C26.3227 7.25295 26.3542 6.83499 26.3542 6.4539C26.3542 6.0974 26.3101 5.80236 26.2221 5.56879C26.1466 5.33522 25.9642 5.21844 25.6749 5.21844ZM25.9013 4.88652C26.7064 4.88652 27.3605 5.05248 27.8637 5.3844C28.3794 5.70402 28.6373 6.23262 28.6373 6.97021C28.6373 7.56028 28.4549 8.14421 28.0901 8.72198C27.7253 9.29976 27.2033 9.77305 26.524 10.1418C25.8573 10.5106 25.0711 10.695 24.1654 10.695C23.3981 10.695 22.7502 10.5352 22.2219 10.2156C21.7062 9.88369 21.4483 9.36123 21.4483 8.64823C21.4483 8.27943 21.5363 7.87991 21.7125 7.44965C21.8886 7.00709 22.159 6.59527 22.5238 6.21418C22.8886 5.8208 23.3477 5.50118 23.9012 5.25532C24.4673 5.00946 25.134 4.88652 25.9013 4.88652ZM27.3542 5.86383L26.9768 5.73475C27.1655 5.2799 27.4737 4.89267 27.9014 4.57305C28.3291 4.25343 28.7819 4.09362 29.2599 4.09362C29.6373 4.09362 29.9266 4.19811 30.1279 4.40709C30.3292 4.60378 30.4298 4.88038 30.4298 5.23688C30.4298 5.59338 30.3418 5.85768 30.1656 6.02979C29.9895 6.20189 29.7883 6.28794 29.5618 6.28794C29.3606 6.28794 29.1656 6.22033 28.9769 6.08511C28.8008 5.93759 28.6939 5.71631 28.6562 5.42128C28.6184 5.12624 28.7002 4.74515 28.9014 4.27801L29.0713 4.37021C28.5807 4.55461 28.2159 4.75745 27.9769 4.97872C27.7379 5.2 27.5303 5.49503 27.3542 5.86383Z" fill="#F5F5F5"/>
<path d="M31.5594 10.6028C32.1506 10.3816 32.6916 10.1541 33.1821 9.92057C33.6853 9.6747 34.1067 9.41655 34.4463 9.1461C34.9118 8.74043 35.2892 8.26714 35.5785 7.72624C35.8678 7.17305 36.0124 6.57069 36.0124 5.91915C36.0124 5.63641 35.9873 5.45201 35.937 5.36596C35.8867 5.2799 35.8112 5.23688 35.7105 5.23688C35.4212 5.23688 35.1068 5.3721 34.7671 5.64255C34.4275 5.913 34.0941 6.28794 33.7671 6.76738C33.44 7.23452 33.1381 7.76312 32.8614 8.35319C32.5972 8.94326 32.3834 9.56407 32.2198 10.2156C32.0563 10.8671 31.9745 11.5125 31.9745 12.1518C31.9745 12.8033 32.1003 13.2643 32.3519 13.5348C32.6161 13.7929 32.962 13.922 33.3897 13.922C33.7545 13.922 34.1885 13.8052 34.6916 13.5716C35.1948 13.3381 35.6917 12.9139 36.1823 12.2993L36.4842 12.4468C36.2326 12.8525 35.8992 13.2459 35.4841 13.627C35.069 14.008 34.591 14.3215 34.0501 14.5674C33.5218 14.8009 32.9368 14.9177 32.2953 14.9177C31.767 14.9177 31.289 14.8194 30.8613 14.6227C30.4336 14.426 30.1002 14.1371 29.8612 13.756C29.6222 13.3626 29.5027 12.8832 29.5027 12.3177C29.5027 11.7154 29.6097 11.0761 29.8235 10.4C30.0374 9.71158 30.3393 9.04161 30.7292 8.39007C31.1317 7.73853 31.6035 7.14846 32.1444 6.61986C32.6978 6.09125 33.3079 5.67329 33.9746 5.36596C34.6413 5.04634 35.3583 4.88652 36.1257 4.88652C36.6288 4.88652 37.0502 5.00331 37.3899 5.23688C37.7295 5.45816 37.8993 5.80236 37.8993 6.2695C37.8993 6.74894 37.761 7.19764 37.4842 7.6156C37.2075 8.03357 36.8301 8.41466 36.3521 8.75886C35.8867 9.10307 35.3709 9.4104 34.8048 9.68085C34.2514 9.9513 33.6916 10.1849 33.1255 10.3816C32.5595 10.5782 32.0311 10.7381 31.5406 10.861L31.5594 10.6028Z" fill="#F5F5F5"/>
<path d="M40.7307 14.6596H38.4098L40.6929 6.71206C40.7432 6.53995 40.781 6.38014 40.8061 6.23262C40.8313 6.08511 40.8187 5.96217 40.7684 5.86383C40.7307 5.76548 40.6237 5.71631 40.4476 5.71631C40.2086 5.71631 39.9885 5.8331 39.7872 6.06667C39.5985 6.28794 39.391 6.69976 39.1646 7.30213L38.8438 8.16879H38.4853L38.9759 6.78582C39.24 6.06052 39.5797 5.56265 39.9948 5.2922C40.4099 5.02175 40.869 4.88652 41.3722 4.88652C41.7873 4.88652 42.1018 4.96643 42.3156 5.12624C42.5421 5.28605 42.6867 5.49504 42.7496 5.75319C42.8125 5.99905 42.8251 6.27565 42.7874 6.58298C42.7496 6.87801 42.693 7.17305 42.6175 7.46808L40.7307 14.6596ZM41.4288 11.3035C41.8942 10.0374 42.3408 8.99243 42.7685 8.16879C43.1962 7.34515 43.6113 6.69362 44.0138 6.21418C44.4164 5.72246 44.8315 5.37825 45.2592 5.18156C45.6868 4.98487 46.1334 4.88652 46.5988 4.88652C47.2152 4.88652 47.6429 5.02175 47.8819 5.2922C48.1335 5.55035 48.253 5.89456 48.2404 6.32482C48.2404 6.74279 48.1587 7.19149 47.9951 7.67092L46.146 13.0922C46.0328 13.4241 46.0013 13.6761 46.0516 13.8482C46.102 14.008 46.2278 14.0879 46.429 14.0879C46.6177 14.0879 46.8127 13.9835 47.014 13.7745C47.2278 13.5655 47.4542 13.1414 47.6932 12.5021L47.9951 11.6723H48.3536L47.8819 13.0184C47.7058 13.5348 47.4794 13.9281 47.2026 14.1986C46.9385 14.469 46.6492 14.6534 46.3347 14.7518C46.0328 14.8624 45.7309 14.9177 45.429 14.9177C45.1019 14.9177 44.8189 14.8624 44.5799 14.7518C44.3535 14.6534 44.1774 14.5121 44.0516 14.3277C43.888 14.0941 43.8188 13.7929 43.844 13.4241C43.8692 13.0553 43.9698 12.6128 44.1459 12.0965L45.863 7.02553C45.9259 6.82884 45.9762 6.63215 46.0139 6.43546C46.0516 6.22648 46.0454 6.05437 45.995 5.91915C45.9447 5.77163 45.8126 5.69787 45.5988 5.69787C45.3346 5.69787 45.0453 5.84539 44.7308 6.14043C44.4164 6.42317 44.0893 6.82269 43.7497 7.33901C43.41 7.85532 43.0704 8.45768 42.7308 9.1461C42.3911 9.83452 42.0641 10.5844 41.7496 11.3957C41.4477 12.1948 41.1772 13.0246 40.9382 13.8851L41.4288 11.3035Z" fill="#F5F5F5"/>
<path d="M56.8767 13.0922C56.7886 13.3872 56.7635 13.627 56.8012 13.8113C56.839 13.9957 56.9648 14.0879 57.1786 14.0879C57.3799 14.0879 57.5748 13.9835 57.7635 13.7745C57.9648 13.5532 58.1786 13.1291 58.4051 12.5021L58.707 11.6723H59.0655L58.6126 13.0184C58.4491 13.5225 58.229 13.9097 57.9522 14.1801C57.6881 14.4506 57.405 14.6411 57.1031 14.7518C56.8012 14.8624 56.5056 14.9177 56.2163 14.9177C55.4364 14.9177 54.971 14.6165 54.82 14.0142C54.7445 13.7929 54.7194 13.5225 54.7445 13.2028C54.7697 12.8832 54.8452 12.5144 54.971 12.0965L57.6126 2.36028C57.7258 1.94232 57.7069 1.63499 57.556 1.4383C57.405 1.24161 57.0214 1.14326 56.405 1.14326L56.5371 0.756028C57.3673 0.743735 58.1032 0.676122 58.7447 0.553191C59.3862 0.417967 59.9963 0.23357 60.575 0L56.8767 13.0922ZM52.4614 14.1064C52.713 14.1064 53.0023 13.9589 53.3294 13.6638C53.6564 13.3565 53.9898 12.9262 54.3294 12.373C54.6816 11.8076 55.015 11.1314 55.3295 10.3447C55.6565 9.55792 55.9333 8.68511 56.1597 7.72624L55.8767 9.71773C55.4364 10.9348 54.9961 11.9243 54.5558 12.6865C54.1282 13.4487 53.669 14.0142 53.1784 14.383C52.6878 14.7395 52.1343 14.9177 51.518 14.9177C51.1154 14.9177 50.7506 14.8317 50.4236 14.6596C50.0965 14.4752 49.8387 14.1986 49.65 13.8298C49.4613 13.4487 49.3669 12.9631 49.3669 12.373C49.3669 11.8076 49.4613 11.1929 49.65 10.5291C49.8387 9.85295 50.1091 9.18298 50.4613 8.51915C50.8135 7.85532 51.2475 7.25295 51.7633 6.71206C52.279 6.15886 52.8514 5.71631 53.4803 5.3844C54.1219 5.05248 54.82 4.88652 55.5748 4.88652C55.9521 4.88652 56.2477 4.98487 56.4616 5.18156C56.6754 5.36596 56.7949 5.63641 56.8201 5.99291L56.6691 6.3617C56.6188 5.99291 56.5182 5.7286 56.3672 5.56879C56.2163 5.39669 56.015 5.31064 55.7634 5.31064C55.3861 5.31064 55.0024 5.45816 54.6124 5.75319C54.2351 6.04823 53.8766 6.4539 53.5369 6.97021C53.1973 7.47423 52.8954 8.04586 52.6312 8.68511C52.3671 9.32435 52.1595 9.99433 52.0086 10.695C51.8576 11.3835 51.7821 12.0596 51.7821 12.7234C51.7821 13.1905 51.8325 13.5409 51.9331 13.7745C52.0463 13.9957 52.2224 14.1064 52.4614 14.1064Z" fill="#F5F5F5"/>
<path d="M69.8498 4.86808C70.3153 4.86808 70.743 4.9234 71.1329 5.03404C71.5354 5.13239 71.8814 5.27376 72.1707 5.45816C72.4726 5.64255 72.7116 5.87612 72.8877 6.15886C73.0638 6.42931 73.1519 6.7305 73.1519 7.06241C73.1519 7.46808 73.0261 7.79385 72.7745 8.03971C72.5229 8.28558 72.2084 8.40851 71.8311 8.40851C71.4411 8.40851 71.1203 8.29787 70.8687 8.0766C70.6297 7.85532 70.5102 7.56028 70.5102 7.19149C70.5102 6.83499 70.6172 6.53995 70.831 6.30638C71.0449 6.07281 71.3027 5.91915 71.6046 5.84539C71.4914 5.68558 71.3153 5.5565 71.0763 5.45816C70.8373 5.34752 70.5731 5.2922 70.2838 5.2922C69.9064 5.2922 69.5668 5.39054 69.2649 5.58723C68.963 5.77163 68.6988 6.05437 68.4724 6.43546C68.2586 6.80426 68.0888 7.26525 67.963 7.81844C67.8498 8.35934 67.7931 8.98629 67.7931 9.69929C67.7931 10.695 67.9126 11.4818 68.1516 12.0596C68.4032 12.6374 68.724 13.0492 69.114 13.295C69.5039 13.5286 69.919 13.6454 70.3593 13.6454C70.6235 13.6454 70.9065 13.5962 71.2084 13.4979C71.5103 13.3995 71.8059 13.2336 72.0952 13C72.3971 12.7664 72.6676 12.4345 72.9066 12.0043L73.2651 12.1333C73.1267 12.5636 72.9003 12.9939 72.5858 13.4241C72.2839 13.8544 71.8877 14.2109 71.3971 14.4936C70.9065 14.7764 70.309 14.9177 69.6045 14.9177C68.7995 14.9177 68.0699 14.7395 67.4158 14.383C66.7617 14.0142 66.2396 13.461 65.8497 12.7234C65.4723 11.9858 65.2836 11.07 65.2836 9.97589C65.2836 8.89409 65.4786 7.97825 65.8685 7.22837C66.2585 6.46619 66.7994 5.88227 67.4912 5.4766C68.1957 5.07092 68.9819 4.86808 69.8498 4.86808Z" fill="#F5F5F5"/>
<path d="M76.9476 14.7887C76.4067 14.7887 75.9475 14.6903 75.5702 14.4936C75.1928 14.2846 74.9098 14.008 74.7211 13.6638C74.5324 13.3073 74.438 12.9139 74.438 12.4837C74.438 11.9551 74.5638 11.5248 74.8154 11.1929C75.067 10.8487 75.3878 10.5782 75.7777 10.3816C76.1802 10.1726 76.6016 10.0005 77.0419 9.86525C77.4822 9.71773 77.8973 9.58251 78.2873 9.45957C78.6772 9.32435 78.998 9.17068 79.2496 8.99858C79.5011 8.82648 79.6269 8.59905 79.6269 8.31631V6.97021C79.6269 6.57683 79.564 6.25721 79.4382 6.01135C79.325 5.75319 79.1489 5.56265 78.9099 5.43972C78.6835 5.30449 78.3942 5.23688 78.042 5.23688C77.7778 5.23688 77.5011 5.27376 77.2117 5.34752C76.9224 5.42128 76.6834 5.56265 76.4947 5.77163C76.8218 5.85768 77.0734 6.01749 77.2495 6.25106C77.4382 6.48463 77.5325 6.76738 77.5325 7.09929C77.5325 7.48038 77.4004 7.78156 77.1363 8.00284C76.8847 8.21182 76.5639 8.31631 76.174 8.31631C75.7588 8.31631 75.4444 8.18723 75.2305 7.92908C75.0167 7.67092 74.9098 7.36974 74.9098 7.02553C74.9098 6.68132 74.9978 6.39858 75.1739 6.1773C75.35 5.94373 75.5953 5.73475 75.9098 5.55035C76.2243 5.34137 76.6268 5.17541 77.1174 5.05248C77.608 4.92955 78.1426 4.86808 78.7212 4.86808C79.2747 4.86808 79.7653 4.92955 80.193 5.05248C80.6207 5.16312 80.9855 5.36596 81.2874 5.66099C81.5893 5.94373 81.7843 6.29409 81.8723 6.71206C81.9604 7.13002 82.0044 7.64019 82.0044 8.24255V13.295C82.0044 13.6024 82.0421 13.8236 82.1176 13.9589C82.1931 14.0818 82.3126 14.1433 82.4761 14.1433C82.6019 14.1433 82.7214 14.1125 82.8346 14.0511C82.9478 13.9896 83.0736 13.9035 83.212 13.7929L83.4195 14.1064C83.1428 14.3154 82.8535 14.4813 82.5516 14.6043C82.2497 14.7272 81.8849 14.7887 81.4572 14.7887C81.0169 14.7887 80.6647 14.7272 80.4006 14.6043C80.149 14.4813 79.9603 14.3031 79.8345 14.0695C79.7213 13.8359 79.6584 13.5593 79.6458 13.2397C79.3439 13.7314 78.9728 14.1125 78.5325 14.383C78.0923 14.6534 77.5639 14.7887 76.9476 14.7887ZM78.0797 13.756C78.3816 13.756 78.6583 13.6761 78.9099 13.5163C79.1741 13.3565 79.4131 13.1168 79.6269 12.7972V9.07234C79.5011 9.25674 79.3187 9.42269 79.0797 9.57021C78.8533 9.71773 78.608 9.86525 78.3439 10.0128C78.0797 10.1603 77.8281 10.3324 77.5891 10.5291C77.3627 10.7135 77.1677 10.947 77.0042 11.2298C76.8532 11.5002 76.7778 11.8506 76.7778 12.2809C76.7778 12.7603 76.8973 13.1291 77.1363 13.3872C77.3753 13.6331 77.6897 13.756 78.0797 13.756Z" fill="#F5F5F5"/>
<path d="M90.2263 4.86808C90.6162 4.86808 90.937 4.94799 91.1886 5.1078C91.4528 5.26761 91.6477 5.47045 91.7735 5.71631C91.8993 5.96217 91.9622 6.22033 91.9622 6.49078C91.9622 6.89645 91.8364 7.23451 91.5848 7.50496C91.3458 7.77541 91.0251 7.91064 90.6225 7.91064C90.2452 7.91064 89.937 7.81229 89.698 7.6156C89.459 7.41891 89.3395 7.14846 89.3395 6.80426C89.3395 6.49693 89.4149 6.23877 89.5659 6.02979C89.7294 5.8208 89.9118 5.65485 90.1131 5.53191C89.9747 5.45816 89.8175 5.43357 89.6414 5.45816C89.3395 5.48274 89.0627 5.58723 88.8111 5.77163C88.5596 5.95603 88.3457 6.18345 88.1696 6.4539C87.9935 6.72435 87.8551 7.01324 87.7545 7.32057C87.6664 7.6279 87.6224 7.92293 87.6224 8.20567V12.7603C87.6224 13.3626 87.7796 13.7683 88.0941 13.9773C88.4086 14.174 88.8677 14.2723 89.4715 14.2723V14.6596C89.1822 14.6473 88.7608 14.635 88.2073 14.6227C87.6664 14.5981 87.1004 14.5858 86.5092 14.5858C86.0186 14.5858 85.528 14.5981 85.0374 14.6227C84.5594 14.635 84.2009 14.6473 83.9619 14.6596V14.2723C84.4273 14.2723 84.7544 14.1801 84.9431 13.9957C85.1443 13.8113 85.2449 13.461 85.2449 12.9447V7.13617C85.2449 6.58298 85.1506 6.17731 84.9619 5.91915C84.7858 5.6487 84.4525 5.51347 83.9619 5.51347V5.12624C84.3644 5.16312 84.7544 5.18156 85.1317 5.18156C85.5972 5.18156 86.0374 5.16312 86.4526 5.12624C86.8802 5.07707 87.2702 5.00946 87.6224 4.9234V6.84113C87.7734 6.49693 87.9683 6.1773 88.2073 5.88227C88.4589 5.58723 88.7545 5.34752 89.0942 5.16312C89.4464 4.96643 89.8238 4.86808 90.2263 4.86808Z" fill="#F5F5F5"/>
<path d="M96.2263 4.86808C96.7546 4.86808 97.2074 4.94184 97.5848 5.08936C97.9622 5.23688 98.2389 5.36596 98.415 5.4766C98.8427 5.78392 99.1006 5.58723 99.1887 4.88652H99.6038C99.5786 5.24303 99.5597 5.66714 99.5472 6.15886C99.5346 6.6383 99.5283 7.28369 99.5283 8.09504H99.1132C99.0503 7.64019 98.9308 7.19764 98.7547 6.76738C98.5786 6.33712 98.3207 5.98061 97.9811 5.69787C97.6414 5.40284 97.1949 5.25532 96.6414 5.25532C96.2514 5.25532 95.9244 5.36596 95.6602 5.58723C95.4086 5.80851 95.2828 6.12199 95.2828 6.52766C95.2828 6.89645 95.396 7.22222 95.6225 7.50496C95.8489 7.77541 96.1382 8.03357 96.4904 8.27943C96.8552 8.513 97.2326 8.77116 97.6225 9.0539C98.0754 9.34894 98.4779 9.65012 98.8301 9.95745C99.1824 10.2525 99.4654 10.5844 99.6792 10.9532C99.8931 11.3097 100 11.7338 100 12.2255C100 12.791 99.8365 13.2766 99.5094 13.6823C99.1949 14.0756 98.7735 14.383 98.2452 14.6043C97.7295 14.8132 97.1571 14.9177 96.5282 14.9177C96.1885 14.9177 95.8803 14.887 95.6036 14.8255C95.3269 14.7641 95.0816 14.6842 94.8677 14.5858C94.7042 14.4998 94.5532 14.4199 94.4149 14.3461C94.2891 14.2723 94.157 14.2109 94.0186 14.1617C93.8928 14.1002 93.7796 14.1248 93.679 14.2355C93.5909 14.3461 93.5217 14.5305 93.4714 14.7887H93.0563C93.0815 14.3953 93.1003 13.9158 93.1129 13.3504C93.1255 12.7849 93.1318 12.035 93.1318 11.1007H93.5469C93.6349 11.7768 93.767 12.373 93.9431 12.8894C94.1318 13.3934 94.4023 13.7929 94.7545 14.0879C95.1067 14.3707 95.5596 14.5121 96.113 14.5121C96.3521 14.5121 96.5785 14.4629 96.7923 14.3645C97.0187 14.2662 97.2011 14.1125 97.3395 13.9035C97.4905 13.6946 97.5659 13.4118 97.5659 13.0553C97.5659 12.5144 97.3773 12.0657 96.9999 11.7092C96.6225 11.3527 96.1508 10.9716 95.5847 10.566C95.157 10.2586 94.7545 9.95745 94.3771 9.66241C94.0123 9.36738 93.7104 9.03546 93.4714 8.66667C93.245 8.29787 93.1318 7.86146 93.1318 7.35745C93.1318 6.80425 93.2765 6.34941 93.5658 5.99291C93.8551 5.62411 94.2325 5.34752 94.6979 5.16312C95.1759 4.96643 95.6854 4.86808 96.2263 4.86808Z" fill="#F5F5F5"/>
<path d="M30.024 26.2013C30.0758 26.2249 30.1308 26.2456 30.1891 26.2633C30.2539 26.2751 30.3478 26.281 30.4708 26.281C30.7558 26.281 30.9889 26.2042 31.1703 26.0506C31.3581 25.8911 31.452 25.6637 31.452 25.3684C31.452 25.1852 31.4131 25.0051 31.3354 24.8278C31.2642 24.6447 31.1346 24.435 30.9468 24.1987C30.7979 24.0097 30.6554 23.8177 30.5194 23.6228C30.3834 23.4219 30.3154 23.1857 30.3154 22.9139C30.3154 22.6599 30.3834 22.4413 30.5194 22.2582C30.6554 22.0692 30.8367 21.9215 31.0634 21.8152C31.2965 21.7089 31.5491 21.6557 31.8211 21.6557C32.0089 21.6557 32.1935 21.6764 32.3748 21.7177C32.5561 21.7591 32.7051 21.8359 32.8217 21.9481C32.9447 22.0544 33.0062 22.2139 33.0062 22.4266C33.0062 22.4797 32.99 22.5447 32.9577 22.6215C32.9318 22.6924 32.8864 22.7544 32.8217 22.8076C32.7569 22.8608 32.6695 22.8873 32.5594 22.8873C32.4558 22.8873 32.3651 22.8549 32.2874 22.7899C32.2097 22.719 32.1708 22.6274 32.1708 22.5152C32.1708 22.4089 32.1935 22.3084 32.2388 22.2139C32.2906 22.1135 32.3586 22.016 32.4428 21.9215C32.3198 21.8506 32.1579 21.8152 31.9571 21.8152C31.7175 21.8152 31.5167 21.889 31.3548 22.0367C31.1929 22.1844 31.112 22.3911 31.112 22.657C31.112 22.7928 31.1346 22.9139 31.18 23.0203C31.2253 23.1207 31.2901 23.227 31.3743 23.3392C31.4649 23.4515 31.5718 23.5932 31.6948 23.7646C31.8567 23.989 31.9927 24.2046 32.1028 24.4114C32.2129 24.6181 32.268 24.8367 32.268 25.0671C32.268 25.3388 32.1902 25.581 32.0348 25.7937C31.8859 26.0004 31.6851 26.1629 31.4325 26.281C31.18 26.3992 30.9015 26.4582 30.5971 26.4582C30.3769 26.4582 30.1665 26.4287 29.9657 26.3696C29.7649 26.3105 29.5998 26.219 29.4703 26.0949C29.3472 25.965 29.2857 25.7937 29.2857 25.581C29.2857 25.4983 29.3149 25.4127 29.3731 25.3241C29.425 25.2295 29.5221 25.1823 29.6646 25.1823C29.82 25.1823 29.9301 25.2414 29.9948 25.3595C30.0596 25.4717 30.092 25.5987 30.092 25.7405C30.092 25.835 30.0823 25.9207 30.0628 25.9975C30.0499 26.0684 30.0369 26.1363 30.024 26.2013Z" fill="#F5F5F5"/>
<path d="M34.9865 20.1671C35.0189 20.0135 35.1031 19.8806 35.2391 19.7684C35.3816 19.6561 35.5338 19.6 35.6957 19.6C35.8641 19.6 35.9936 19.6561 36.0842 19.7684C36.1814 19.8806 36.2138 20.0135 36.1814 20.1671C36.149 20.3207 36.0616 20.4536 35.9191 20.5658C35.7831 20.6781 35.6309 20.7342 35.4625 20.7342C35.3006 20.7342 35.1711 20.6781 35.074 20.5658C34.9833 20.4536 34.9542 20.3207 34.9865 20.1671ZM34.6854 22.5329C34.8214 22.1667 34.7761 21.9835 34.5494 21.9835C34.4005 21.9835 34.2677 22.0574 34.1511 22.2051C34.0346 22.3527 33.9115 22.5802 33.782 22.8873L33.646 23.2152H33.4614L33.714 22.5684C33.8111 22.3203 33.9277 22.1312 34.0637 22.0013C34.1997 21.8713 34.3422 21.7827 34.4911 21.7354C34.6465 21.6823 34.789 21.6557 34.9185 21.6557C35.1258 21.6557 35.278 21.6941 35.3751 21.7709C35.4723 21.8477 35.5305 21.9481 35.55 22.0722C35.5694 22.1962 35.5629 22.3321 35.5305 22.4797C35.4982 22.6215 35.4561 22.7603 35.4043 22.8962L34.3648 25.581C34.3001 25.7523 34.2774 25.8882 34.2968 25.9886C34.3227 26.0831 34.3972 26.1304 34.5203 26.1304C34.6498 26.1304 34.7728 26.0654 34.8894 25.9354C35.006 25.8055 35.1355 25.5692 35.278 25.2266L35.414 24.8987H35.5985L35.346 25.5456C35.2553 25.7759 35.1452 25.9591 35.0157 26.0949C34.8862 26.2249 34.7469 26.3165 34.598 26.3696C34.449 26.4287 34.3001 26.4582 34.1511 26.4582C33.8727 26.4582 33.6849 26.3992 33.5877 26.281C33.4906 26.1629 33.455 26.0093 33.4809 25.8203C33.5068 25.6312 33.5618 25.4304 33.646 25.2177L34.6854 22.5329Z" fill="#F5F5F5"/>
<path d="M37.267 26.3342H36.4219L37.5876 22.5329C37.6135 22.462 37.6329 22.3852 37.6459 22.3025C37.6653 22.2139 37.6621 22.1401 37.6362 22.081C37.6102 22.016 37.5455 21.9835 37.4419 21.9835C37.2994 21.9835 37.1731 22.0485 37.063 22.1785C36.9529 22.3025 36.8299 22.5388 36.6939 22.8873L36.5676 23.2152H36.383L36.6259 22.5684C36.7684 22.1962 36.9432 21.9511 37.1504 21.8329C37.3642 21.7148 37.5746 21.6557 37.7819 21.6557C37.9761 21.6557 38.1154 21.6941 38.1996 21.7709C38.2902 21.8477 38.3388 21.9481 38.3453 22.0722C38.3582 22.1903 38.3485 22.3232 38.3161 22.4709C38.2902 22.6127 38.2579 22.7544 38.219 22.8962L37.267 26.3342ZM37.7139 24.4911C37.9405 23.9595 38.1607 23.5135 38.3744 23.1532C38.5881 22.7928 38.7986 22.5034 39.0058 22.2848C39.2131 22.0603 39.4235 21.9008 39.6373 21.8063C39.8574 21.7059 40.0841 21.6557 40.3172 21.6557C40.6216 21.6557 40.8289 21.7236 40.939 21.8595C41.0555 21.9895 41.1073 22.1578 41.0944 22.3646C41.0814 22.5654 41.0361 22.7751 40.9584 22.9937L40.0161 25.581C39.9578 25.7405 39.9319 25.8734 39.9384 25.9797C39.9514 26.0802 40.0291 26.1304 40.1715 26.1304C40.2946 26.1304 40.4144 26.0684 40.531 25.9443C40.654 25.8203 40.7835 25.581 40.9195 25.2266L41.0458 24.8987H41.2304L40.9875 25.5456C40.8969 25.7937 40.7835 25.9827 40.6475 26.1127C40.518 26.2426 40.3788 26.3312 40.2298 26.3785C40.0873 26.4316 39.9481 26.4582 39.8121 26.4582C39.6567 26.4582 39.5272 26.4346 39.4235 26.3873C39.3264 26.3401 39.2519 26.2781 39.2001 26.2013C39.1289 26.0949 39.1062 25.9561 39.1321 25.7848C39.158 25.6135 39.2098 25.4245 39.2876 25.2177L40.2104 22.6835C40.2428 22.6008 40.2687 22.5034 40.2881 22.3911C40.314 22.273 40.3108 22.1696 40.2784 22.081C40.246 21.9865 40.1521 21.9392 39.9967 21.9392C39.8413 21.9392 39.6761 22.0013 39.5013 22.1253C39.3264 22.2494 39.1451 22.4266 38.9573 22.657C38.7695 22.8814 38.5849 23.1532 38.4036 23.4722C38.2222 23.7852 38.0474 24.1338 37.879 24.5177C37.7171 24.8958 37.5682 25.3004 37.4322 25.7316L37.7139 24.4911Z" fill="#F5F5F5"/>
<path d="M44.8545 21.8329C44.6084 21.8329 44.3623 21.9245 44.1162 22.1076C43.8766 22.2907 43.6564 22.5418 43.4557 22.8608C43.2549 23.1797 43.093 23.543 42.97 23.9506C42.8534 24.3582 42.7951 24.7865 42.7951 25.2354C42.7951 25.5367 42.8566 25.7553 42.9797 25.8911C43.1092 26.0211 43.2743 26.0861 43.4751 26.0861C43.7082 26.0861 43.9479 26.0211 44.1939 25.8911C44.44 25.7612 44.6861 25.5308 44.9322 25.2L45.1265 25.2709C45.0035 25.4658 44.8416 25.6549 44.6408 25.838C44.44 26.0211 44.2134 26.1717 43.9608 26.2899C43.7147 26.4021 43.4524 26.4582 43.174 26.4582C42.7854 26.4582 42.4745 26.3489 42.2414 26.1304C42.0083 25.9118 41.8917 25.5869 41.8917 25.1557C41.8917 24.884 41.9338 24.5916 42.018 24.2785C42.1087 23.9595 42.2349 23.6464 42.3968 23.3392C42.5652 23.0262 42.7692 22.7456 43.0088 22.4975C43.2484 22.2435 43.5204 22.0397 43.8248 21.8861C44.1292 21.7325 44.4627 21.6557 44.8254 21.6557C45.1103 21.6557 45.3564 21.7236 45.5636 21.8595C45.7709 21.9895 45.8745 22.1726 45.8745 22.4089C45.8745 22.5211 45.8454 22.6333 45.7871 22.7456C45.7353 22.8519 45.6575 22.9405 45.5539 23.0114C45.4503 23.0823 45.3273 23.1177 45.1848 23.1177C45.0488 23.1177 44.9484 23.0852 44.8837 23.0203C44.8189 22.9494 44.7865 22.8667 44.7865 22.7722C44.7865 22.6008 44.861 22.4561 45.0099 22.338C45.1589 22.2139 45.3273 22.1371 45.5151 22.1076C45.4503 22.0249 45.3661 21.9599 45.2625 21.9127C45.1589 21.8595 45.0229 21.8329 44.8545 21.8329Z" fill="#F5F5F5"/>
<path d="M46.7258 24.3228C47.0885 24.2105 47.4155 24.1013 47.707 23.9949C48.0049 23.8827 48.2413 23.7646 48.4161 23.6405C48.6492 23.4692 48.8338 23.2624 48.9698 23.0203C49.1058 22.7781 49.1738 22.5122 49.1738 22.2228C49.1738 22.0515 49.1609 21.9422 49.1349 21.8949C49.109 21.8477 49.0702 21.8241 49.0184 21.8241C48.8565 21.8241 48.6816 21.889 48.4938 22.019C48.306 22.1489 48.1214 22.3291 47.9401 22.5595C47.7588 22.784 47.5904 23.0409 47.435 23.3304C47.286 23.6198 47.1662 23.93 47.0756 24.2608C46.9849 24.5857 46.9396 24.9105 46.9396 25.2354C46.9396 25.5367 47.0011 25.7553 47.1241 25.8911C47.2472 26.0211 47.4091 26.0861 47.6098 26.0861C47.843 26.0861 48.0891 26.0211 48.3481 25.8911C48.6072 25.7612 48.8597 25.5308 49.1058 25.2L49.2612 25.2709C49.1382 25.4658 48.9763 25.6549 48.7755 25.838C48.5748 26.0211 48.3481 26.1717 48.0955 26.2899C47.8494 26.4021 47.5872 26.4582 47.3087 26.4582C47.0497 26.4582 46.823 26.411 46.6287 26.3165C46.4344 26.2219 46.2855 26.0831 46.1819 25.9C46.0782 25.711 46.0264 25.4806 46.0264 25.2089C46.0264 24.9549 46.0782 24.6713 46.1819 24.3582C46.2855 24.0392 46.4312 23.7232 46.619 23.4101C46.8133 23.0911 47.0432 22.7987 47.3087 22.5329C47.5742 22.2671 47.8689 22.0544 48.1927 21.8949C48.5165 21.7354 48.863 21.6557 49.2321 21.6557C49.4328 21.6557 49.6012 21.7059 49.7372 21.8063C49.8797 21.9008 49.9509 22.0456 49.9509 22.2405C49.9509 22.4768 49.8732 22.6983 49.7178 22.9051C49.5689 23.1059 49.3681 23.292 49.1155 23.4633C48.8694 23.6287 48.6007 23.7764 48.3092 23.9063C48.0178 24.0363 47.7329 24.1485 47.4544 24.243C47.1759 24.3376 46.9298 24.4143 46.7161 24.4734L46.7258 24.3228Z" fill="#F5F5F5"/>
<path d="M55.5816 21.6734L54.076 26.3342H53.2308L54.4742 22.4975C54.2929 22.592 54.0889 22.6835 53.8622 22.7722C53.6356 22.8549 53.3539 22.9435 53.0171 23.038L53.0463 22.8519C53.4543 22.7397 53.7975 22.6186 54.076 22.4886C54.3609 22.3527 54.607 22.2169 54.8142 22.081C55.0215 21.9392 55.2125 21.8034 55.3874 21.6734H55.5816Z" fill="#F5F5F5"/>
<path d="M58.9505 21.6557C59.4427 21.6557 59.8021 21.7886 60.0287 22.0544C60.2619 22.3203 60.3785 22.716 60.3785 23.2418C60.3785 23.7616 60.2748 24.2519 60.0676 24.7127C59.8604 25.1675 59.5851 25.584 59.2419 25.962C58.8987 26.3401 58.5198 26.6709 58.1053 26.9544C57.6973 27.238 57.2861 27.4684 56.8717 27.6456C56.4572 27.8228 56.0783 27.9409 55.7351 28L55.6768 27.8228C56.033 27.746 56.3924 27.6072 56.7551 27.4063C57.1177 27.2055 57.461 26.9544 57.7848 26.6532C58.1151 26.3519 58.4065 26.0093 58.659 25.6253C58.9181 25.2413 59.1221 24.8278 59.271 24.3848C59.42 23.9418 59.4945 23.4781 59.4945 22.9937C59.4945 22.5388 59.4297 22.2316 59.3002 22.0722C59.1771 21.9127 59.0088 21.8329 58.795 21.8329C58.5231 21.8329 58.277 21.9215 58.0568 22.0987C57.8431 22.2759 57.6585 22.5034 57.5031 22.781C57.3541 23.0586 57.2408 23.3511 57.1631 23.6582C57.0854 23.9654 57.0465 24.2489 57.0465 24.5089C57.0465 24.8219 57.1016 25.0494 57.2116 25.1911C57.3282 25.3329 57.4836 25.4038 57.6779 25.4038C57.8657 25.4038 58.0632 25.327 58.2705 25.1734C58.4777 25.0198 58.6623 24.7363 58.8242 24.3228L58.9796 24.3759C58.863 24.7068 58.7141 24.9667 58.5328 25.1557C58.3514 25.3447 58.1572 25.4776 57.9499 25.5544C57.7492 25.6253 57.5516 25.6608 57.3574 25.6608C56.9947 25.6608 56.7 25.5485 56.4734 25.3241C56.2467 25.0937 56.1334 24.7629 56.1334 24.3316C56.1334 23.9831 56.2079 23.6494 56.3568 23.3304C56.5058 23.0114 56.7097 22.7278 56.9688 22.4797C57.2343 22.2257 57.5354 22.0249 57.8722 21.8772C58.2154 21.7295 58.5749 21.6557 58.9505 21.6557Z" fill="#F5F5F5"/>
<path d="M62.6777 21.7266C62.9562 21.7266 63.2055 21.762 63.4257 21.8329C63.6524 21.8979 63.8758 21.9658 64.096 22.0367C64.3162 22.1076 64.5526 22.1519 64.8051 22.1696C65.0188 22.1755 65.2099 22.1549 65.3783 22.1076C65.5467 22.0544 65.6988 21.9451 65.8348 21.7797H66.0874C65.8802 22.0338 65.6503 22.2937 65.3977 22.5595C65.1451 22.8194 64.8861 23.0941 64.6206 23.3835C64.355 23.6671 64.096 23.9684 63.8434 24.2873C63.5973 24.6063 63.3707 24.9489 63.1634 25.3152C62.9627 25.6814 62.8008 26.0743 62.6777 26.4937C62.6518 26.5882 62.6292 26.6768 62.6097 26.7595C62.5903 26.8422 62.5741 26.919 62.5612 26.9899C62.5482 27.0608 62.532 27.1287 62.5126 27.1937C62.4737 27.3118 62.4025 27.4152 62.2989 27.5038C62.1953 27.5983 62.0658 27.6456 61.9103 27.6456C61.8132 27.6456 61.7387 27.6249 61.6869 27.5835C61.6416 27.5422 61.6157 27.4831 61.6092 27.4063C61.6027 27.3295 61.6092 27.2439 61.6286 27.1494C61.6934 26.8245 61.8358 26.4759 62.056 26.1038C62.2827 25.7316 62.5547 25.3565 62.872 24.9785C63.1958 24.6004 63.5293 24.2312 63.8726 23.8709C64.2158 23.5105 64.5396 23.1768 64.844 22.8696C65.1548 22.5565 65.4074 22.2848 65.6017 22.0544C65.6017 22.0544 65.6276 22.0456 65.6794 22.0278C65.7312 22.0042 65.7571 21.9924 65.7571 21.9924C65.6341 22.0928 65.5046 22.1814 65.3686 22.2582C65.2326 22.3291 65.0901 22.3882 64.9411 22.4354C64.7987 22.4768 64.6529 22.5093 64.504 22.5329C64.355 22.5506 64.2093 22.5595 64.0669 22.5595C63.8143 22.5595 63.5973 22.5388 63.416 22.4975C63.2347 22.4502 63.0631 22.4059 62.9012 22.3646C62.7457 22.3232 62.5709 22.3025 62.3766 22.3025C62.137 22.3025 61.9362 22.3527 61.7743 22.4532C61.6189 22.5477 61.5412 22.6954 61.5412 22.8962C61.5412 23.1443 61.6513 23.3511 61.8715 23.5165C62.0917 23.6819 62.4317 23.8148 62.8915 23.9152L62.8332 24.0481C62.3798 23.9654 62.0107 23.8266 61.7258 23.6316C61.4473 23.4367 61.3081 23.1591 61.3081 22.7987C61.3081 22.6274 61.3534 22.462 61.444 22.3025C61.5412 22.1371 61.6901 22.0013 61.8909 21.8949C62.0981 21.7827 62.3604 21.7266 62.6777 21.7266Z" fill="#F5F5F5"/>
<path d="M70.656 19.9367L70.7143 20.1139C70.3452 20.1966 69.9728 20.3414 69.5972 20.5481C69.228 20.7549 68.8751 21.0148 68.5383 21.3278C68.208 21.6409 67.9101 21.9954 67.6446 22.3911C67.3856 22.7869 67.1783 23.2152 67.0229 23.6759C66.874 24.1367 66.7995 24.6181 66.7995 25.1203C66.7995 25.5751 66.861 25.8823 66.9841 26.0418C67.1136 26.2013 67.2852 26.281 67.4989 26.281C67.7709 26.281 68.0138 26.1924 68.2275 26.0152C68.4477 25.838 68.6322 25.6105 68.7812 25.3329C68.9366 25.0553 69.0532 24.7629 69.1309 24.4557C69.2086 24.1485 69.2475 23.865 69.2475 23.6051C69.2475 23.292 69.1892 23.0646 69.0726 22.9228C68.9625 22.781 68.8103 22.7101 68.616 22.7101C68.4282 22.7101 68.2307 22.7869 68.0235 22.9405C67.8162 23.0941 67.6317 23.3776 67.4698 23.7911L67.3143 23.738C67.4309 23.4013 67.5799 23.1414 67.7612 22.9582C67.9425 22.7692 68.1368 22.6392 68.344 22.5684C68.5513 22.4916 68.7488 22.4532 68.9366 22.4532C69.2993 22.4532 69.5939 22.5684 69.8206 22.7987C70.0472 23.0232 70.1606 23.3511 70.1606 23.7823C70.1606 24.1308 70.0861 24.4646 69.9372 24.7835C69.7882 25.1025 69.581 25.389 69.3155 25.643C69.0564 25.8911 68.7585 26.089 68.4218 26.2367C68.085 26.3844 67.7256 26.4582 67.3435 26.4582C66.8513 26.4582 66.4886 26.3253 66.2555 26.0595C66.0288 25.7878 65.9155 25.392 65.9155 24.8722C65.9155 24.3346 66.0224 23.8295 66.2361 23.357C66.4498 22.8844 66.7315 22.4532 67.0812 22.0633C67.4309 21.6675 67.8162 21.3219 68.2372 21.0266C68.6581 20.7312 69.0791 20.492 69.5 20.3089C69.921 20.1198 70.3063 19.9958 70.656 19.9367Z" fill="#F5F5F5"/>
</svg>
