<svg width="12" height="16" viewBox="0 0 12 16" fill="none" xmlns="http://www.w3.org/2000/svg">
<path d="M0 16C0 14.3834 0.632141 12.8331 1.75736 11.69C2.88258 10.5469 4.4087 9.90476 6 9.90476C7.5913 9.90476 9.11742 10.5469 10.2426 11.69C11.3679 12.8331 12 14.3834 12 16H10.5C10.5 14.7876 10.0259 13.6248 9.18198 12.7675C8.33807 11.9102 7.19347 11.4286 6 11.4286C4.80653 11.4286 3.66193 11.9102 2.81802 12.7675C1.97411 13.6248 1.5 14.7876 1.5 16H0ZM6 9.14286C3.51375 9.14286 1.5 7.09714 1.5 4.57143C1.5 2.04571 3.51375 0 6 0C8.48625 0 10.5 2.04571 10.5 4.57143C10.5 7.09714 8.48625 9.14286 6 9.14286ZM6 7.61905C7.6575 7.61905 9 6.25524 9 4.57143C9 2.88762 7.6575 1.52381 6 1.52381C4.3425 1.52381 3 2.88762 3 4.57143C3 6.25524 4.3425 7.61905 6 7.61905Z" fill="#F5F5F5"/>
</svg>
